<svg xmlns="http://www.w3.org/2000/svg" version="1.1" xmlns:xlink="http://www.w3.org/1999/xlink" xmlns:svgjs="http://svgjs.dev/svgjs" width="1000" height="1000" viewBox="0 0 1000 1000"><rect width="1000" height="1000" fill="#000000"></rect><g transform="matrix(0.7,0,0,0.7,149.57575757575756,410.6594280274934)"><svg viewBox="0 0 396 101" data-background-color="#ffffff" preserveAspectRatio="xMidYMid meet" height="255" width="1000" xmlns="http://www.w3.org/2000/svg" xmlns:xlink="http://www.w3.org/1999/xlink"><g id="tight-bounds" transform="matrix(1,0,0,1,0.2400000000000091,0.051248006852489425)"><svg viewBox="0 0 395.52 100.897503986295" height="100.897503986295" width="395.52"><g><svg viewBox="0 0 395.52 100.897503986295" height="100.897503986295" width="395.52"><g><svg viewBox="0 0 395.52 100.897503986295" height="100.897503986295" width="395.52"><g><svg viewBox="0 0 395.52 100.897503986295" height="100.897503986295" width="395.52"><g><rect width="75.54432" height="5.498098013069651" y="85.37983842575403" fill="#ff0000" data-fill-palette-color="tertiary"></rect><rect width="75.54432" height="5.498098013069651" y="85.37983842575403" x="319.97568" fill="#ff0000" data-fill-palette-color="tertiary"></rect></g><g><svg viewBox="0 0 395.52 60.96734414249829" height="60.96734414249829" width="395.52"><g transform="matrix(1,0,0,1,0,0)"><svg width="395.52" viewBox="2.7 -33.25 218.93 33.75" height="60.96734414249829" data-palette-color="#ff0000"><path d="M11.33-15.73Q6.85-16.8 4.78-18.88 2.7-20.95 2.7-24.9 2.7-28.85 5.43-31.05 8.15-33.25 12.45-33.25 16.75-33.25 21.2-31.7L21.2-31.7 20.5-29.15Q16.35-30.65 12.88-30.65 9.4-30.65 7.55-29.18 5.7-27.7 5.7-24.9 5.7-22.1 7.2-20.65 8.7-19.2 13.18-18.03 17.65-16.85 19.65-14.93 21.65-13 21.65-8.72 21.65-4.45 18.78-1.98 15.9 0.5 11.35 0.5L11.35 0.5Q7.95 0.5 2.75-0.95L2.75-0.95 3.4-3.5Q8.5-2.1 11.6-2.1 14.7-2.1 16.7-3.83 18.7-5.55 18.7-8.65 18.7-11.75 17.25-13.2 15.8-14.65 11.33-15.73ZM33-9.1L33-20.9 28.8-20.9 28.8-23.4 33-23.4 33-29.15 35.65-29.65 35.65-23.4 45.15-23.4 45.15-20.9 35.65-20.9 35.65-9.2Q35.65-5.3 36.42-3.7 37.2-2.1 39.6-2.1 42-2.1 44.9-3.05L44.9-3.05 45.5-0.55Q42.6 0.5 40.1 0.5 37.6 0.5 36.17-0.15 34.75-0.8 34.07-2.23 33.4-3.65 33.2-5.15 33-6.65 33-9.1L33-9.1ZM59.25-21.25L54.55-21.25 54.55-23.75 61.9-23.75 62-20.85Q63.6-21.85 66.5-22.85 69.4-23.85 71.59-24.05L71.59-24.05 71.59-21.1Q69.55-20.95 66.52-20.1 63.5-19.25 62-18.35L62-18.35 62-2.5 70-2.5 70 0 54.55 0 54.55-2.5 59.25-2.5 59.25-21.25ZM78.34-11.85Q78.34-17.6 80.72-20.83 83.09-24.05 87.64-24.05 92.19-24.05 94.42-21.05 96.64-18.05 96.64-13.05L96.64-13.05 96.49-10.55 81.19-10.55Q81.44-6.8 83.19-4.48 84.94-2.15 88.02-2.15 91.09-2.15 95.24-3.6L95.24-3.6 95.99-1.1Q91.94 0.45 88.39 0.45L88.39 0.45Q83.49 0.45 80.92-2.83 78.34-6.1 78.34-11.85ZM87.84-21.5L87.84-21.5Q81.54-21.5 81.19-13.05L81.19-13.05 93.79-13.05Q93.79-21.5 87.84-21.5ZM110.89-2.15L110.89-2.15Q112.74-2.15 114.92-3.33 117.09-4.5 118.09-5.5L118.09-5.5 118.09-11.45Q114.79-11.7 111.79-11.7 108.79-11.7 107.29-10.43 105.79-9.15 105.79-7L105.79-7Q105.79-2.15 110.89-2.15ZM110.84 0.45L110.84 0.45Q107.19 0.45 105.09-1.43 102.99-3.3 102.99-6.75 102.99-10.2 105.29-12.1L105.29-12.1Q107.59-14.05 111.39-14.05 115.19-14.05 118.09-13.75L118.09-13.75Q118.09-18.2 116.99-19.83 115.89-21.45 112.54-21.45 109.19-21.45 104.64-19.85L104.64-19.85 103.89-22.35Q108.54-24.05 112.29-24.05L112.29-24.05Q117.24-24.05 118.99-21.85 120.74-19.65 120.74-14.15L120.74-14.15 120.74-3.65 121.14 0.15 118.59 0.4 118.09-2.6Q116.94-1.6 114.84-0.58 112.74 0.45 110.84 0.45ZM126.74-23.75L129.24-23.75 129.39-22.25Q131.89-24.05 133.24-24.05L133.24-24.05Q136.54-24.05 137.79-21.9L137.79-21.9Q140.59-24.05 142.69-24.05L142.69-24.05Q145.94-24.05 147.14-22.05 148.34-20.05 148.34-15.9L148.34-15.9 148.34 0 145.69 0 145.69-15.9Q145.69-18.75 145.09-20.13 144.49-21.5 142.79-21.5 141.09-21.5 138.59-19.9L138.59-19.9Q138.89-18.2 138.89-15.9L138.89-15.9 138.89-7.6 136.24-7.6 136.24-15.9Q136.24-18.75 135.64-20.1L135.64-20.1Q134.99-21.5 133.29-21.5 131.59-21.5 129.39-19.9L129.39-19.9 129.39 0 126.74 0 126.74-23.75ZM161.31-15.73Q156.84-16.8 154.76-18.88 152.69-20.95 152.69-24.9 152.69-28.85 155.41-31.05 158.14-33.25 162.44-33.25 166.74-33.25 171.19-31.7L171.19-31.7 170.49-29.15Q166.34-30.65 162.86-30.65 159.39-30.65 157.54-29.18 155.69-27.7 155.69-24.9 155.69-22.1 157.19-20.65 158.69-19.2 163.16-18.03 167.64-16.85 169.64-14.93 171.64-13 171.64-8.72 171.64-4.45 168.76-1.98 165.89 0.5 161.34 0.5L161.34 0.5Q157.94 0.5 152.74-0.95L152.74-0.95 153.39-3.5Q158.49-2.1 161.59-2.1 164.69-2.1 166.69-3.83 168.69-5.55 168.69-8.65 168.69-11.75 167.24-13.2 165.79-14.65 161.31-15.73ZM178.33-11.85Q178.33-17.6 180.71-20.83 183.08-24.05 187.63-24.05 192.18-24.05 194.41-21.05 196.63-18.05 196.63-13.05L196.63-13.05 196.48-10.55 181.18-10.55Q181.43-6.8 183.18-4.48 184.93-2.15 188.01-2.15 191.08-2.15 195.23-3.6L195.23-3.6 195.98-1.1Q191.93 0.45 188.38 0.45L188.38 0.45Q183.48 0.45 180.91-2.83 178.33-6.1 178.33-11.85ZM187.83-21.5L187.83-21.5Q181.53-21.5 181.18-13.05L181.18-13.05 193.78-13.05Q193.78-21.5 187.83-21.5ZM203.33-11.85Q203.33-17.6 205.71-20.83 208.08-24.05 212.63-24.05 217.18-24.05 219.41-21.05 221.63-18.05 221.63-13.05L221.63-13.05 221.48-10.55 206.18-10.55Q206.43-6.8 208.18-4.48 209.93-2.15 213.01-2.15 216.08-2.15 220.23-3.6L220.23-3.6 220.98-1.1Q216.93 0.45 213.38 0.45L213.38 0.45Q208.48 0.45 205.91-2.83 203.33-6.1 203.33-11.85ZM212.83-21.5L212.83-21.5Q206.53-21.5 206.18-13.05L206.18-13.05 218.78-13.05Q218.78-21.5 212.83-21.5Z" opacity="1" transform="matrix(1,0,0,1,0,0)" fill="#ffffff" class="undefined-text-0" data-fill-palette-color="primary" id="text-0"></path></svg></g></svg></g><g transform="matrix(1,0,0,1,75.54432,75.36027087828272)"><svg viewBox="0 0 244.43135999999998 25.537233108012288" height="25.537233108012288" width="244.43135999999998"><g transform="matrix(1,0,0,1,8,0)"><svg width="228.43135999999998" viewBox="3 -36.25 423.06 47.3" height="25.537233108012288" data-palette-color="#ca3433"><path d="M30-24.9L35.8-24.9 35.9-24.5Q35.95-24.05 36.05-23.35 36.15-22.65 36.23-21.7 36.3-20.75 36.3-19.8L36.3-19.8Q36.3-14.25 35.68-10.4 35.05-6.55 33.63-4.17 32.2-1.8 29.85-0.73 27.5 0.35 24.05 0.35L24.05 0.35Q19.2 0.35 17.4-3.65L17.4-3.65Q16.5-1.6 14.93-0.63 13.35 0.35 10.3 0.35L10.3 0.35Q6.4 0.35 4.7-1.9 3-4.15 3-8.15L3-8.15 3-24.9 8.7-24.9 8.7-8.6Q8.7-6.5 9.45-5.13 10.2-3.75 12-3.75L12-3.75Q14.3-3.75 15.55-6 16.8-8.25 16.8-13.45L16.8-13.45 16.8-24.9 22.45-24.9Q22.4-21.15 22.4-17.95L22.4-17.95Q22.4-16.55 22.38-15.15 22.35-13.75 22.35-12.5 22.35-11.25 22.35-10.23 22.35-9.2 22.35-8.6L22.35-8.6Q22.35-6.5 23.15-5.13 23.95-3.75 25.75-3.75L25.75-3.75Q27.5-3.75 28.48-5.1 29.45-6.45 29.9-8.63 30.35-10.8 30.45-13.58 30.55-16.35 30.55-19.2L30.55-19.2Q30.55-20.35 30.48-21.38 30.4-22.4 30.28-23.2 30.15-24 30.1-24.45L30.1-24.45 30-24.9ZM40.3-11.85Q40.3-15.2 41.22-17.75 42.15-20.3 43.77-22.03 45.4-23.75 47.6-24.63 49.8-25.5 52.35-25.5L52.35-25.5Q54.6-25.5 56.17-24.95 57.75-24.4 58.75-23.45 59.75-22.5 60.22-21.2 60.7-19.9 60.7-18.4L60.7-18.4Q60.7-16.6 59.7-14.98 58.7-13.35 56.82-12.13 54.95-10.9 52.3-10.18 49.65-9.45 46.35-9.4L46.35-9.4Q46.5-8.25 46.82-7.23 47.15-6.2 47.77-5.43 48.4-4.65 49.4-4.2 50.4-3.75 51.9-3.75L51.9-3.75Q53-3.75 54.25-4 55.5-4.25 56.55-4.6L56.55-4.6Q57.8-5 59-5.5L59-5.5 60.5-1.95Q59.2-1.3 57.7-0.8L57.7-0.8Q56.4-0.35 54.7 0 53 0.35 51.1 0.35L51.1 0.35Q48.2 0.35 46.15-0.53 44.1-1.4 42.8-3 41.5-4.6 40.9-6.85 40.3-9.1 40.3-11.85L40.3-11.85ZM51.9-21.6Q50.25-21.6 49.17-20.83 48.1-20.05 47.45-18.82 46.8-17.6 46.52-16.07 46.25-14.55 46.2-13L46.2-13Q48.6-13.1 50.27-13.63 51.95-14.15 53-14.93 54.05-15.7 54.52-16.6 55-17.5 55-18.4L55-18.4Q55-19.85 54.15-20.73 53.3-21.6 51.9-21.6L51.9-21.6ZM84.34 10.05L78.64 11.05 78.64-12.6Q78.64-15.6 78.24-17.63 77.84-19.65 77.39-20.9L77.39-20.9Q76.84-22.35 76.19-23.25L76.19-23.25 80.69-25.05Q81.29-24.45 81.79-23.55L81.79-23.55Q82.19-22.8 82.59-21.73 82.99-20.65 83.19-19.2L83.19-19.2Q84.04-22.2 85.89-23.75 87.74-25.3 91.04-25.3L91.04-25.3Q93.39-25.3 95.12-24.43 96.84-23.55 97.97-21.93 99.09-20.3 99.64-18 100.19-15.7 100.19-12.9L100.19-12.9Q100.19-10.05 99.34-7.63 98.49-5.2 96.92-3.45 95.34-1.7 93.14-0.7 90.94 0.3 88.24 0.3L88.24 0.3Q87.29 0.3 86.32 0.2 85.34 0.1 84.34 0L84.34 0 84.34 10.05ZM90.09-21.3Q88.84-21.3 87.79-20.45 86.74-19.6 85.97-18.2 85.19-16.8 84.77-15.05 84.34-13.3 84.34-11.45L84.34-11.45 84.34-4.25Q84.84-4.1 85.84-3.9 86.84-3.7 87.59-3.7L87.59-3.7Q89.49-3.7 90.74-4.35 91.99-5 92.74-6.15 93.49-7.3 93.79-8.9 94.09-10.5 94.09-12.4L94.09-12.4Q94.09-14.15 93.99-15.75 93.89-17.35 93.47-18.6 93.04-19.85 92.24-20.58 91.44-21.3 90.09-21.3L90.09-21.3ZM115.14-25.5Q120.89-25.5 123.49-22.1 126.09-18.7 126.09-12.75L126.09-12.75Q126.09-9.95 125.39-7.53 124.69-5.1 123.27-3.33 121.84-1.55 119.69-0.53 117.54 0.5 114.69 0.5L114.69 0.5Q111.84 0.5 109.77-0.38 107.69-1.25 106.34-2.9 104.99-4.55 104.37-6.9 103.74-9.25 103.74-12.2L103.74-12.2Q103.74-15.05 104.44-17.48 105.14-19.9 106.57-21.68 107.99-23.45 110.14-24.48 112.29-25.5 115.14-25.5L115.14-25.5ZM114.64-21.3Q113.19-21.3 112.27-20.65 111.34-20 110.82-18.82 110.29-17.65 110.09-16.07 109.89-14.5 109.89-12.7L109.89-12.7Q109.89-10.85 110.12-9.2 110.34-7.55 110.94-6.33 111.54-5.1 112.57-4.4 113.59-3.7 115.19-3.7L115.19-3.7Q116.64-3.7 117.57-4.35 118.49-5 119.02-6.18 119.54-7.35 119.74-8.9 119.94-10.45 119.94-12.25L119.94-12.25Q119.94-14.1 119.72-15.75 119.49-17.4 118.89-18.65 118.29-19.9 117.27-20.6 116.24-21.3 114.64-21.3L114.64-21.3ZM138.44-25.5L138.44-25.5Q139.89-25.5 141.29-25.2 142.69-24.9 143.79-24.5L143.79-24.5Q145.09-24.05 146.19-23.55L146.19-23.55 144.49-19.65Q143.49-20.1 142.49-20.45L142.49-20.45Q141.64-20.75 140.61-21.03 139.59-21.3 138.59-21.3L138.59-21.3Q137.44-21.3 136.61-20.75 135.79-20.2 135.79-19.1L135.79-19.1Q135.79-16.25 139.94-14.65L139.94-14.65Q141.49-14.05 142.74-13.38 143.99-12.7 144.86-11.8 145.74-10.9 146.19-9.73 146.64-8.55 146.64-6.95L146.64-6.95Q146.64-5.55 146.06-4.2 145.49-2.85 144.36-1.8 143.24-0.75 141.61-0.13 139.99 0.5 137.94 0.5L137.94 0.5Q136.29 0.5 134.69 0.13 133.09-0.25 131.81-0.7 130.54-1.15 129.79-1.55L129.79-1.55 129.04-1.9 130.89-6.1 131.54-5.75Q132.19-5.35 133.19-4.9 134.19-4.45 135.34-4.08 136.49-3.7 137.44-3.7L137.44-3.7Q139.19-3.7 140.04-4.4 140.89-5.1 140.89-6.25L140.89-6.25Q140.89-7.55 139.96-8.63 139.04-9.7 137.19-10.4L137.19-10.4Q133.34-11.85 131.66-13.7 129.99-15.55 129.99-18.5L129.99-18.5Q129.99-19.9 130.64-21.18 131.29-22.45 132.41-23.43 133.54-24.4 135.09-24.95 136.64-25.5 138.44-25.5ZM148.94-20.85L148.94-24.9 153.44-24.9 154.44-30.75 159.13-31.8 159.13-24.9 165.28-24.9 164.59-20.85 159.13-20.85 159.13-6.05Q159.13-4.75 159.84-4.38 160.53-4 161.38-4L161.38-4Q162.09-4 162.78-4.1 163.49-4.2 164.03-4.35L164.03-4.35Q164.69-4.5 165.28-4.7L165.28-4.7 166.24-0.95 165.78-0.8Q165.34-0.6 164.46-0.38 163.59-0.15 162.41 0.03 161.24 0.2 159.84 0.2L159.84 0.2Q158.44 0.2 157.26-0.1 156.09-0.4 155.24-1.07 154.38-1.75 153.91-2.8 153.44-3.85 153.44-5.4L153.44-5.4 153.44-20.85 148.94-20.85ZM183.58-6.15Q183.63-6.2 184.38-6.63 185.13-7.05 186.88-7.05L186.88-7.05Q188.63-7.05 189.43-6 190.23-4.95 190.23-3.35L190.23-3.35Q190.23-1.3 189.66 0.35 189.08 2 188.13 3.35 187.18 4.7 185.96 5.7 184.73 6.7 183.38 7.35L183.38 7.35 181.23 4.45Q183.18 3 183.86 1.55 184.53 0.1 184.53-1.25L184.53-1.25Q184.53-2.7 184.08-3.95 183.63-5.2 183.58-6.15L183.58-6.15ZM229.83-24.9L229.58-10.1Q229.58-8.6 229.8-7.35 230.03-6.1 230.3-4.88 230.58-3.65 230.83-2.4 231.08-1.15 231.08 0.35L231.08 0.35Q231.08 5.65 228.38 8.25 225.68 10.85 221.08 10.85L221.08 10.85Q219.58 10.85 218.08 10.58 216.58 10.3 215.3 9.95 214.03 9.6 213.13 9.25 212.23 8.9 211.93 8.75L211.93 8.75 213.33 4.4Q214.03 4.7 214.9 5.03 215.78 5.35 216.7 5.65 217.63 5.95 218.63 6.15 219.63 6.35 220.58 6.35L220.58 6.35Q223.38 6.35 224.63 4.67 225.88 3 225.88 0.35L225.88 0.35Q225.88-2.05 224.88-4.6L224.88-4.6Q223.48-1.95 221.15-0.83 218.83 0.3 216.28 0.3L216.28 0.3Q212.33 0.3 210.65-2 208.98-4.3 208.98-8.3L208.98-8.3 208.98-24.9 214.68-24.9 214.68-8.45Q214.68-6.35 215.43-5.15 216.18-3.95 217.98-3.95L217.98-3.95Q218.93-3.95 220-4.5 221.08-5.05 221.95-6.03 222.83-7 223.4-8.38 223.98-9.75 223.98-11.35L223.98-11.35 223.98-24.9 229.83-24.9ZM246.02-25.5Q251.77-25.5 254.37-22.1 256.97-18.7 256.97-12.75L256.97-12.75Q256.97-9.95 256.27-7.53 255.57-5.1 254.15-3.33 252.72-1.55 250.57-0.53 248.42 0.5 245.57 0.5L245.57 0.5Q242.72 0.5 240.65-0.38 238.57-1.25 237.22-2.9 235.87-4.55 235.25-6.9 234.62-9.25 234.62-12.2L234.62-12.2Q234.62-15.05 235.32-17.48 236.02-19.9 237.45-21.68 238.87-23.45 241.02-24.48 243.17-25.5 246.02-25.5L246.02-25.5ZM245.52-21.3Q244.07-21.3 243.15-20.65 242.22-20 241.7-18.82 241.17-17.65 240.97-16.07 240.77-14.5 240.77-12.7L240.77-12.7Q240.77-10.85 241-9.2 241.22-7.55 241.82-6.33 242.42-5.1 243.45-4.4 244.47-3.7 246.07-3.7L246.07-3.7Q247.52-3.7 248.45-4.35 249.37-5 249.9-6.18 250.42-7.35 250.62-8.9 250.82-10.45 250.82-12.25L250.82-12.25Q250.82-14.1 250.6-15.75 250.37-17.4 249.77-18.65 249.17-19.9 248.15-20.6 247.12-21.3 245.52-21.3L245.52-21.3ZM276.77-12.7L276.77-24.9 282.47-24.9 282.47-12.05Q282.47-9.05 282.85-7.03 283.22-5 283.67-3.75L283.67-3.75Q284.22-2.25 284.87-1.4L284.87-1.4 280.42 0.4Q279.82-0.15 279.32-1L279.32-1Q278.92-1.7 278.5-2.73 278.07-3.75 277.92-5.15L277.92-5.15Q276.57-2.2 274.12-0.95 271.67 0.3 269.02 0.3L269.02 0.3Q265.07 0.3 263.4-2 261.72-4.3 261.72-8.3L261.72-8.3 261.72-24.9 267.42-24.9 267.42-8.4Q267.42-6.3 268.17-5.1 268.92-3.9 270.72-3.9L270.72-3.9Q271.82-3.9 272.9-4.53 273.97-5.15 274.85-6.3 275.72-7.45 276.25-9.08 276.77-10.7 276.77-12.7L276.77-12.7ZM328.92-24.9L334.72-24.9 334.81-24.5Q334.87-24.05 334.97-23.35 335.06-22.65 335.14-21.7 335.22-20.75 335.22-19.8L335.22-19.8Q335.22-14.25 334.59-10.4 333.97-6.55 332.54-4.17 331.12-1.8 328.77-0.73 326.42 0.35 322.97 0.35L322.97 0.35Q318.12 0.35 316.31-3.65L316.31-3.65Q315.42-1.6 313.84-0.63 312.27 0.35 309.22 0.35L309.22 0.35Q305.31 0.35 303.62-1.9 301.92-4.15 301.92-8.15L301.92-8.15 301.92-24.9 307.62-24.9 307.62-8.6Q307.62-6.5 308.37-5.13 309.12-3.75 310.92-3.75L310.92-3.75Q313.22-3.75 314.47-6 315.72-8.25 315.72-13.45L315.72-13.45 315.72-24.9 321.37-24.9Q321.31-21.15 321.31-17.95L321.31-17.95Q321.31-16.55 321.29-15.15 321.27-13.75 321.27-12.5 321.27-11.25 321.27-10.23 321.27-9.2 321.27-8.6L321.27-8.6Q321.27-6.5 322.06-5.13 322.87-3.75 324.67-3.75L324.67-3.75Q326.42-3.75 327.39-5.1 328.37-6.45 328.81-8.63 329.27-10.8 329.37-13.58 329.47-16.35 329.47-19.2L329.47-19.2Q329.47-20.35 329.39-21.38 329.31-22.4 329.19-23.2 329.06-24 329.02-24.45L329.02-24.45 328.92-24.9ZM360.81-23.85L360.81-12.05Q360.81-9.05 361.19-7.03 361.56-5 362.01-3.75L362.01-3.75Q362.56-2.25 363.21-1.4L363.21-1.4 358.76 0.4Q358.11-0.25 357.56-1.15L357.56-1.15Q357.11-1.95 356.71-3.08 356.31-4.2 356.21-5.75L356.21-5.75Q355.36-2.75 353.49-1.23 351.61 0.3 348.41 0.3L348.41 0.3Q346.06 0.3 344.34-0.58 342.61-1.45 341.46-3.08 340.31-4.7 339.76-7 339.21-9.3 339.21-12.1L339.21-12.1Q339.21-14.95 340.09-17.38 340.96-19.8 342.54-21.55 344.11-23.3 346.31-24.3 348.51-25.3 351.16-25.3L351.16-25.3Q352.66-25.3 354.29-25.08 355.91-24.85 357.31-24.6 358.71-24.35 359.69-24.13 360.66-23.9 360.81-23.85L360.81-23.85ZM349.36-3.7Q350.61-3.7 351.66-4.55 352.71-5.4 353.49-6.78 354.26-8.15 354.69-9.93 355.11-11.7 355.11-13.55L355.11-13.55 355.11-20.75Q354.61-20.9 353.61-21.1 352.61-21.3 351.81-21.3L351.81-21.3Q349.91-21.3 348.69-20.65 347.46-20 346.71-18.85 345.96-17.7 345.66-16.1 345.36-14.5 345.36-12.6L345.36-12.6Q345.36-10.85 345.46-9.25 345.56-7.65 345.99-6.4 346.41-5.15 347.21-4.42 348.01-3.7 349.36-3.7L349.36-3.7ZM364.76-20.85L364.76-24.9 369.26-24.9 370.26-30.75 374.96-31.8 374.96-24.9 381.11-24.9 380.41-20.85 374.96-20.85 374.96-6.05Q374.96-4.75 375.66-4.38 376.36-4 377.21-4L377.21-4Q377.91-4 378.61-4.1 379.31-4.2 379.86-4.35L379.86-4.35Q380.51-4.5 381.11-4.7L381.11-4.7 382.06-0.95 381.61-0.8Q381.16-0.6 380.29-0.38 379.41-0.15 378.24 0.03 377.06 0.2 375.66 0.2L375.66 0.2Q374.26 0.2 373.09-0.1 371.91-0.4 371.06-1.07 370.21-1.75 369.74-2.8 369.26-3.85 369.26-5.4L369.26-5.4 369.26-20.85 364.76-20.85ZM401.51-22.1L398.31-19.05Q397.56-19.9 396.78-20.5 396.01-21.1 394.71-21.1L394.71-21.1Q393.96-21.1 393.03-20.88 392.11-20.65 391.31-19.78 390.51-18.9 389.98-17.2 389.46-15.5 389.46-12.6L389.46-12.6Q389.46-9.65 389.98-7.93 390.51-6.2 391.33-5.25 392.16-4.3 393.11-4.03 394.06-3.75 394.96-3.75L394.96-3.75Q395.66-3.75 396.41-3.88 397.16-4 397.86-4.17 398.56-4.35 399.08-4.5 399.61-4.65 399.86-4.75L399.86-4.75 401.26-1.15Q401.11-1.1 400.58-0.85 400.06-0.6 399.16-0.35 398.26-0.1 397.01 0.13 395.76 0.35 394.21 0.35L394.21 0.35Q391.31 0.35 389.26-0.53 387.21-1.4 385.88-3 384.56-4.6 383.93-6.85 383.31-9.1 383.31-11.85L383.31-11.85Q383.31-15.15 384.18-17.7 385.06-20.25 386.61-21.98 388.16-23.7 390.26-24.6 392.36-25.5 394.76-25.5L394.76-25.5Q397.11-25.5 398.73-24.6 400.36-23.7 401.51-22.1L401.51-22.1ZM411.01-36.25L411.01-21.7Q412.46-23.6 414.48-24.45 416.51-25.3 418.76-25.3L418.76-25.3Q422.61-25.3 424.33-22.98 426.06-20.65 426.06-16.7L426.06-16.7 426.06 0 420.36 0 420.36-16.3Q420.36-18.4 419.61-19.63 418.86-20.85 417.06-20.85L417.06-20.85Q416.01-20.85 414.93-20.3 413.86-19.75 412.98-18.73 412.11-17.7 411.56-16.3 411.01-14.9 411.01-13.2L411.01-13.2 411.01 0 405.31 0 405.31-35.25 411.01-36.25Z" opacity="1" transform="matrix(1,0,0,1,0,0)" fill="#ffffff" class="undefined-text-1" data-fill-palette-color="secondary" id="text-1"></path></svg></g></svg></g></svg></g></svg></g><g></g></svg></g><defs></defs></svg><rect width="395.52" height="100.897503986295" fill="none" stroke="none" visibility="hidden"></rect></g></svg></g></svg>